<mxfile host="app.diagrams.net" modified="2023-05-15T11:21:15.096Z" agent="Mozilla/5.0 (Windows NT 10.0; Win64; x64) AppleWebKit/537.36 (KHTML, like Gecko) Chrome/113.0.0.0 Safari/537.36" etag="tIGkGDjO39vDtXAkEUBk" version="21.2.9" type="github">
  <diagram name="Page-1" id="kBxohcB39IzsedGL9roW">
    <mxGraphModel dx="819" dy="505" grid="1" gridSize="10" guides="1" tooltips="1" connect="1" arrows="1" fold="1" page="1" pageScale="1" pageWidth="850" pageHeight="1100" math="0" shadow="0">
      <root>
        <mxCell id="0" />
        <mxCell id="1" parent="0" />
        <mxCell id="dru7JuXwHPCl1oRvL8AK-1" value="Male" style="ellipse;whiteSpace=wrap;html=1;aspect=fixed;fillColor=#348abd;strokeColor=#348abd;" vertex="1" parent="1">
          <mxGeometry x="50" y="40" width="50" height="50" as="geometry" />
        </mxCell>
        <mxCell id="dru7JuXwHPCl1oRvL8AK-2" value="Female" style="ellipse;whiteSpace=wrap;html=1;aspect=fixed;fillColor=#e26755;strokeColor=#e26755;" vertex="1" parent="1">
          <mxGeometry x="50" y="100" width="50" height="50" as="geometry" />
        </mxCell>
        <mxCell id="dru7JuXwHPCl1oRvL8AK-3" value="Female" style="ellipse;whiteSpace=wrap;html=1;aspect=fixed;fillColor=#e26755;strokeColor=#e26755;" vertex="1" parent="1">
          <mxGeometry x="50" y="160" width="50" height="50" as="geometry" />
        </mxCell>
        <mxCell id="dru7JuXwHPCl1oRvL8AK-4" value="" style="shape=flexArrow;endArrow=classic;html=1;rounded=0;" edge="1" parent="1">
          <mxGeometry width="50" height="50" relative="1" as="geometry">
            <mxPoint x="110" y="64.66" as="sourcePoint" />
            <mxPoint x="150" y="64.66" as="targetPoint" />
          </mxGeometry>
        </mxCell>
        <mxCell id="dru7JuXwHPCl1oRvL8AK-5" value="Male" style="ellipse;whiteSpace=wrap;html=1;aspect=fixed;fillColor=#348abd;strokeColor=#348abd;" vertex="1" parent="1">
          <mxGeometry x="160" y="40" width="50" height="50" as="geometry" />
        </mxCell>
        <mxCell id="dru7JuXwHPCl1oRvL8AK-6" value="Male" style="ellipse;whiteSpace=wrap;html=1;aspect=fixed;fillColor=#348abd;strokeColor=#348abd;" vertex="1" parent="1">
          <mxGeometry x="220" y="40" width="50" height="50" as="geometry" />
        </mxCell>
        <mxCell id="dru7JuXwHPCl1oRvL8AK-7" value="Female" style="ellipse;whiteSpace=wrap;html=1;aspect=fixed;fillColor=#e26755;strokeColor=#e26755;" vertex="1" parent="1">
          <mxGeometry x="280" y="40" width="50" height="50" as="geometry" />
        </mxCell>
        <mxCell id="dru7JuXwHPCl1oRvL8AK-10" value="" style="shape=flexArrow;endArrow=classic;html=1;rounded=0;" edge="1" parent="1">
          <mxGeometry width="50" height="50" relative="1" as="geometry">
            <mxPoint x="110" y="124.66" as="sourcePoint" />
            <mxPoint x="150" y="124.66" as="targetPoint" />
          </mxGeometry>
        </mxCell>
        <mxCell id="dru7JuXwHPCl1oRvL8AK-11" value="Female" style="ellipse;whiteSpace=wrap;html=1;aspect=fixed;fillColor=#e26755;strokeColor=#e26755;" vertex="1" parent="1">
          <mxGeometry x="160" y="100" width="50" height="50" as="geometry" />
        </mxCell>
        <mxCell id="dru7JuXwHPCl1oRvL8AK-12" value="Male" style="ellipse;whiteSpace=wrap;html=1;aspect=fixed;fillColor=#348abd;strokeColor=#348abd;" vertex="1" parent="1">
          <mxGeometry x="220" y="100" width="50" height="50" as="geometry" />
        </mxCell>
        <mxCell id="dru7JuXwHPCl1oRvL8AK-13" value="Female" style="ellipse;whiteSpace=wrap;html=1;aspect=fixed;fillColor=#e26755;strokeColor=#e26755;" vertex="1" parent="1">
          <mxGeometry x="280" y="100" width="50" height="50" as="geometry" />
        </mxCell>
        <mxCell id="dru7JuXwHPCl1oRvL8AK-14" value="" style="shape=flexArrow;endArrow=classic;html=1;rounded=0;" edge="1" parent="1">
          <mxGeometry width="50" height="50" relative="1" as="geometry">
            <mxPoint x="110" y="184.66" as="sourcePoint" />
            <mxPoint x="150" y="184.66" as="targetPoint" />
          </mxGeometry>
        </mxCell>
        <mxCell id="dru7JuXwHPCl1oRvL8AK-15" value="Female" style="ellipse;whiteSpace=wrap;html=1;aspect=fixed;fillColor=#e26755;strokeColor=#e26755;" vertex="1" parent="1">
          <mxGeometry x="160" y="160" width="50" height="50" as="geometry" />
        </mxCell>
        <mxCell id="dru7JuXwHPCl1oRvL8AK-16" value="Male" style="ellipse;whiteSpace=wrap;html=1;aspect=fixed;fillColor=#348abd;strokeColor=#348abd;" vertex="1" parent="1">
          <mxGeometry x="220" y="160" width="50" height="50" as="geometry" />
        </mxCell>
        <mxCell id="dru7JuXwHPCl1oRvL8AK-17" value="Male" style="ellipse;whiteSpace=wrap;html=1;aspect=fixed;fillColor=#348abd;strokeColor=#348abd;" vertex="1" parent="1">
          <mxGeometry x="280" y="160" width="50" height="50" as="geometry" />
        </mxCell>
        <mxCell id="dru7JuXwHPCl1oRvL8AK-18" value="1/3" style="text;html=1;strokeColor=none;fillColor=none;align=center;verticalAlign=middle;whiteSpace=wrap;rounded=0;" vertex="1" parent="1">
          <mxGeometry x="330" y="50" width="60" height="30" as="geometry" />
        </mxCell>
        <mxCell id="dru7JuXwHPCl1oRvL8AK-19" value="2/3" style="text;html=1;strokeColor=none;fillColor=none;align=center;verticalAlign=middle;whiteSpace=wrap;rounded=0;" vertex="1" parent="1">
          <mxGeometry x="330" y="110" width="60" height="30" as="geometry" />
        </mxCell>
        <mxCell id="dru7JuXwHPCl1oRvL8AK-20" value="1/3" style="text;html=1;strokeColor=none;fillColor=none;align=center;verticalAlign=middle;whiteSpace=wrap;rounded=0;" vertex="1" parent="1">
          <mxGeometry x="330" y="170" width="60" height="30" as="geometry" />
        </mxCell>
        <mxCell id="dru7JuXwHPCl1oRvL8AK-23" value="&lt;b&gt;Invited&lt;/b&gt;" style="text;html=1;strokeColor=none;fillColor=none;align=center;verticalAlign=middle;whiteSpace=wrap;rounded=0;" vertex="1" parent="1">
          <mxGeometry x="45" y="220" width="60" height="30" as="geometry" />
        </mxCell>
        <mxCell id="dru7JuXwHPCl1oRvL8AK-24" value="&lt;b&gt;Potential speakers&lt;/b&gt;" style="text;html=1;strokeColor=none;fillColor=none;align=center;verticalAlign=middle;whiteSpace=wrap;rounded=0;" vertex="1" parent="1">
          <mxGeometry x="172.5" y="220" width="145" height="30" as="geometry" />
        </mxCell>
      </root>
    </mxGraphModel>
  </diagram>
</mxfile>
